<?xml version="1.0" encoding="UTF-8"?><svg id="a" xmlns="http://www.w3.org/2000/svg" width="500" height="500" viewBox="0 0 500 500"><defs><style>.b{fill:#06d6a0;}.b,.c,.d{stroke-width:0px;}.c{fill:#ef476f;}.d{fill:#ffd166;}</style></defs><path class="c" d="m420,196.67c0-97.54-76.11-176.61-170-176.61S80,99.14,80,196.67c0,.42.01.84.02,1.26h-.02v282h30V192.93h.09c2.54-78.87,64.87-142,141.41-142s138.87,63.13,141.41,142h.09v98.07h-150v27h150v161.93h27V197.93h-.02c0-.42.02-.84.02-1.26Z"/><path class="d" d="m255,76.4c-1-.02-2-.04-3-.04-64.02,0-116.13,50.99-117.95,114.57h-.05v289h29l2-282.11c-.04-1.15-.07-2.3-.07-3.46,0-49.36,44.07-89.15,87.04-89.15,1.02,0,3.03.04,4.04.08l-1-28.89Z"/><path class="b" d="m337.51,389.93c-2.78,34.45-24.6,61.55-59.76,61.55s-58.12-28.15-59.91-63.55h-.09v-160h0c.1-36.91,23.06-66.81,60-66.81s58.24,28.29,59.91,63.81h28.56c0-.5.03-1,.03-1.5,0-52.74-35.76-95.5-88.5-95.5s-88.5,42.76-88.5,95.5c0,1.17.03,2.34.07,3.5h-.07v157h0c0,.17,0,.33,0,.5,0,52.74,35.76,95.5,88.5,95.5s85.49-39.82,88.34-90h-28.58Z"/></svg>