<?xml version="1.0" encoding="UTF-8"?><svg id="a" xmlns="http://www.w3.org/2000/svg" width="500" height="500" viewBox="0 0 500 500"><defs><style>.b{fill:#fff;stroke:#030303;stroke-miterlimit:10;stroke-width:5px;}.c{font-family:Kodchasan-Bold, Kodchasan;font-size:44.44px;font-weight:700;}.d{letter-spacing:-.02em;}.e,.f,.g,.h,.i,.j,.k,.l{stroke-width:0px;}.f{fill:#f94144;}.g{fill:#f8961e;}.h{fill:#f9c74f;}.i{fill:#277da1;}.j{fill:#d8e2dc;}.k{fill:#90be6d;}.l{fill:#030303;}.m{letter-spacing:0em;}</style></defs><rect class="j" x="93.11" y="6.25" width="283.83" height="466.52" rx="27.62" ry="27.62"/><path class="l" d="m349.32,8.75c13.85,0,25.12,11.27,25.12,25.12v411.27c0,13.85-11.27,25.12-25.12,25.12H120.73c-13.85,0-25.12-11.27-25.12-25.12V33.87c0-13.85,11.27-25.12,25.12-25.12h228.59m0-5H120.73c-16.64,0-30.12,13.49-30.12,30.12v411.27c0,16.64,13.49,30.12,30.12,30.12h228.59c16.64,0,30.12-13.49,30.12-30.12V33.87c0-16.64-13.49-30.12-30.12-30.12h0Z"/><rect class="e" x="140.04" y="472.06" width="17.52" height="23.69"/><path class="l" d="m157.05,472.56v22.69h-16.52v-22.69h16.52m1-1h-18.52v24.69h18.52v-24.69h0Z"/><rect class="e" x="319.02" y="472.06" width="17.51" height="23.69"/><path class="l" d="m336.03,472.56v22.69h-16.52v-22.69h16.52m1-1h-18.52v24.69h18.52v-24.69h0Z"/><line class="b" x1="93.87" y1="187.67" x2="372.83" y2="187.67"/><path class="f" d="m377.33,119.75V49.45h20.34c5.09,0,9.22,4.14,9.22,9.22v51.85c0,5.09-4.14,9.22-9.22,9.22h-20.34Z"/><path class="l" d="m397.67,51.95c3.71,0,6.72,3.02,6.72,6.72v51.85c0,3.71-3.02,6.72-6.72,6.72h-17.84V51.95h17.84m0-5h-22.84v75.29h22.84c6.47,0,11.72-5.25,11.72-11.72v-51.85c0-6.47-5.25-11.72-11.72-11.72h0Z"/><path class="g" d="m377.33,188.87v-70.29h20.34c5.09,0,9.22,4.14,9.22,9.22v51.85c0,5.09-4.14,9.22-9.22,9.22h-20.34Z"/><path class="l" d="m397.67,121.07c3.71,0,6.72,3.02,6.72,6.72v51.85c0,3.71-3.02,6.72-6.72,6.72h-17.84v-65.29h17.84m0-5h-22.84v75.29h22.84c6.47,0,11.72-5.25,11.72-11.72v-51.85c0-6.47-5.25-11.72-11.72-11.72h0Z"/><path class="h" d="m377.33,256.76v-70.29h20.34c5.09,0,9.22,4.14,9.22,9.22v51.85c0,5.09-4.14,9.22-9.22,9.22h-20.34Z"/><path class="l" d="m397.67,188.96c3.71,0,6.72,3.02,6.72,6.72v51.85c0,3.71-3.02,6.72-6.72,6.72h-17.84v-65.29h17.84m0-5h-22.84v75.29h22.84c6.47,0,11.72-5.25,11.72-11.72v-51.85c0-6.47-5.25-11.72-11.72-11.72h0Z"/><path class="k" d="m377.33,325.88v-70.29h20.34c5.09,0,9.22,4.14,9.22,9.22v51.85c0,5.08-4.14,9.22-9.22,9.22h-20.34Z"/><path class="l" d="m397.67,258.09c3.71,0,6.72,3.02,6.72,6.72v51.85c0,3.71-3.02,6.72-6.72,6.72h-17.84v-65.29h17.84m0-5h-22.84v75.29h22.84c6.47,0,11.72-5.25,11.72-11.72v-51.85c0-6.47-5.25-11.72-11.72-11.72h0Z"/><path class="i" d="m377.33,393.77v-70.29h20.34c5.09,0,9.22,4.14,9.22,9.22v51.85c0,5.08-4.14,9.22-9.22,9.22h-20.34Z"/><path class="l" d="m397.67,325.98c3.71,0,6.72,3.02,6.72,6.72v51.85c0,3.71-3.02,6.72-6.72,6.72h-17.84v-65.29h17.84m0-5h-22.84v75.29h22.84c6.47,0,11.72-5.25,11.72-11.72v-51.85c0-6.47-5.25-11.72-11.72-11.72h0Z"/><rect class="l" x="308.67" y="162.95" width="39.44" height="5"/><polygon class="l" points="350.61 160.45 306.17 160.45 306.17 170.45 350.61 170.45 350.61 160.45 350.61 160.45"/><rect class="l" x="308.67" y="207.38" width="39.44" height="5"/><polygon class="l" points="350.61 204.88 306.17 204.88 306.17 214.88 350.61 214.88 350.61 204.88 350.61 204.88"/><text class="c" transform="translate(167.51 63.06)"><tspan x="0" y="0">M</tspan><tspan class="d" x="44.04" y="0">e</tspan><tspan class="m" x="70.34" y="0">aly</tspan></text></svg>